<svg width="1470" height="407" viewBox="0 0 1470 407" fill="none" xmlns="http://www.w3.org/2000/svg">
<path d="M1269 182.435C1268.71 182.055 1268.33 181.747 1267.89 181.536C1267.46 181.324 1266.98 181.215 1266.5 181.215C1266.02 181.215 1265.54 181.324 1265.11 181.536C1264.67 181.747 1264.29 182.055 1264 182.435L1219.48 238.755C1219.11 239.223 1218.89 239.786 1218.82 240.378C1218.76 240.97 1218.87 241.567 1219.13 242.102C1219.39 242.637 1219.8 243.088 1220.3 243.402C1220.81 243.717 1221.39 243.883 1221.98 243.882H1251.36V340.227C1251.36 341.975 1252.79 343.406 1254.54 343.406H1278.38C1280.13 343.406 1281.56 341.975 1281.56 340.227V243.922H1311.02C1313.68 243.922 1315.15 240.861 1313.52 238.795L1269 182.435Z" fill="#152C3D"/>
<path d="M1385.5 145.749C1367.3 97.7356 1320.91 63.5938 1266.58 63.5938C1212.25 63.5938 1165.86 97.6959 1147.66 145.709C1113.6 154.652 1088.44 185.694 1088.44 222.578C1088.44 266.498 1124.01 302.07 1167.89 302.07H1183.83C1185.58 302.07 1187.01 300.639 1187.01 298.891V275.043C1187.01 273.294 1185.58 271.863 1183.83 271.863H1167.89C1154.5 271.863 1141.9 266.537 1132.52 256.879C1123.18 247.26 1118.21 234.303 1118.64 220.869C1119 210.376 1122.58 200.519 1129.06 192.212C1135.7 183.746 1145 177.586 1155.33 174.843L1170.39 170.908L1175.92 156.361C1179.34 147.299 1184.11 138.833 1190.11 131.162C1196.03 123.559 1203.05 116.875 1210.93 111.329C1227.27 99.8422 1246.51 93.761 1266.58 93.761C1286.65 93.761 1305.89 99.8422 1322.22 111.329C1330.13 116.893 1337.13 123.571 1343.05 131.162C1349.05 138.833 1353.82 147.339 1357.24 156.361L1362.73 170.868L1377.75 174.843C1399.29 180.646 1414.36 200.241 1414.36 222.578C1414.36 235.734 1409.23 248.135 1399.93 257.435C1395.37 262.023 1389.94 265.661 1383.96 268.137C1377.99 270.614 1371.58 271.88 1365.11 271.863H1349.17C1347.42 271.863 1345.99 273.294 1345.99 275.043V298.891C1345.99 300.639 1347.42 302.07 1349.17 302.07H1365.11C1408.99 302.07 1444.56 266.498 1444.56 222.578C1444.56 185.733 1419.48 154.732 1385.5 145.749Z" fill="#152C3D"/>
<path d="M80.2969 201.953H143.156V307.422C125.344 315.016 106.406 318.812 86.3438 318.812C62.4375 318.812 44.0156 309.719 31.0781 291.531C18.2344 273.344 11.8125 247.141 11.8125 212.922C11.8125 179.922 19.1719 154.094 33.8906 135.438C48.7031 116.781 69.375 107.453 95.9062 107.453C112.312 107.453 127.969 111.672 142.875 120.109L130.781 151.328C119.156 144.578 108.281 141.203 98.1562 141.203C83.625 141.203 72.0938 147.719 63.5625 160.75C55.125 173.688 50.9062 191.359 50.9062 213.766C50.9062 236.828 53.9531 254.5 60.0469 266.781C66.2344 279.062 75.1875 285.203 86.9062 285.203C93.0938 285.203 99.375 284.406 105.75 282.812V235.703H80.2969V201.953ZM288.281 237.391C288.281 263.078 282.844 283.094 271.969 297.438C261.094 311.688 246.188 318.812 227.25 318.812C215.25 318.812 204.656 315.531 195.469 308.969C186.281 302.406 179.203 292.984 174.234 280.703C169.266 268.328 166.781 253.891 166.781 237.391C166.781 211.984 172.172 192.156 182.953 177.906C193.734 163.562 208.688 156.391 227.812 156.391C246.281 156.391 260.953 163.703 271.828 178.328C282.797 192.859 288.281 212.547 288.281 237.391ZM205.031 237.391C205.031 253.703 206.812 266.031 210.375 274.375C213.938 282.719 219.656 286.891 227.531 286.891C242.531 286.891 250.031 270.391 250.031 237.391C250.031 220.984 248.203 208.75 244.547 200.688C240.984 192.531 235.312 188.453 227.531 188.453C219.656 188.453 213.938 192.531 210.375 200.688C206.812 208.75 205.031 220.984 205.031 237.391ZM308.812 255.25V222.344H379.547V255.25H308.812ZM457.453 318.812C438.797 318.812 424.594 312.016 414.844 298.422C405.094 284.828 400.219 264.859 400.219 238.516C400.219 210.953 404.812 190.375 414 176.781C423.281 163.188 437.578 156.391 456.891 156.391C462.703 156.391 468.797 157.234 475.172 158.922C481.547 160.609 487.266 163.047 492.328 166.234L481.641 195.344C473.859 190.75 466.969 188.453 460.969 188.453C453 188.453 447.234 192.625 443.672 200.969C440.203 209.219 438.469 221.641 438.469 238.234C438.469 254.453 440.203 266.594 443.672 274.656C447.141 282.625 452.812 286.609 460.688 286.609C470.062 286.609 479.859 283.328 490.078 276.766V309.672C480.234 315.766 469.359 318.812 457.453 318.812ZM549.984 316H512.578V97.1875H549.984V316ZM697.5 237.391C697.5 263.078 692.062 283.094 681.188 297.438C670.312 311.688 655.406 318.812 636.469 318.812C624.469 318.812 613.875 315.531 604.688 308.969C595.5 302.406 588.422 292.984 583.453 280.703C578.484 268.328 576 253.891 576 237.391C576 211.984 581.391 192.156 592.172 177.906C602.953 163.562 617.906 156.391 637.031 156.391C655.5 156.391 670.172 163.703 681.047 178.328C692.016 192.859 697.5 212.547 697.5 237.391ZM614.25 237.391C614.25 253.703 616.031 266.031 619.594 274.375C623.156 282.719 628.875 286.891 636.75 286.891C651.75 286.891 659.25 270.391 659.25 237.391C659.25 220.984 657.422 208.75 653.766 200.688C650.203 192.531 644.531 188.453 636.75 188.453C628.875 188.453 623.156 192.531 619.594 200.688C616.031 208.75 614.25 220.984 614.25 237.391ZM808.453 316L803.812 295.891H801.844C798.375 303.016 793.406 308.641 786.938 312.766C780.562 316.797 773.25 318.812 765 318.812C750.938 318.812 740.297 314.031 733.078 304.469C725.859 294.906 722.25 280.609 722.25 261.578V159.344H760.078V252.578C760.078 264.016 761.438 272.641 764.156 278.453C766.875 284.266 771.281 287.172 777.375 287.172C785.438 287.172 791.297 283.141 794.953 275.078C798.703 267.016 800.578 253.469 800.578 234.438V159.344H838.406V316H808.453ZM910.969 318.812C896.531 318.812 885.141 311.688 876.797 297.438C868.453 283.188 864.281 263.359 864.281 237.953C864.281 212.453 868.359 192.484 876.516 178.047C884.672 163.609 895.922 156.391 910.266 156.391C917.391 156.391 923.531 158.172 928.688 161.734C933.938 165.203 938.766 171.109 943.172 179.453H945.422C944.297 165.203 943.734 155.219 943.734 149.5V97.1875H981.141V316H953.297L946.969 295.609H945.703C937.734 311.078 926.156 318.812 910.969 318.812ZM923.062 287.172C930 287.172 935.062 284.031 938.25 277.75C941.438 271.375 943.172 259.844 943.453 243.156V238.234C943.453 220.047 941.812 207.25 938.531 199.844C935.344 192.438 930.047 188.734 922.641 188.734C915.703 188.734 910.641 193 907.453 201.531C904.359 209.969 902.812 222.297 902.812 238.516C902.812 254.734 904.406 266.922 907.594 275.078C910.781 283.141 915.938 287.172 923.062 287.172Z" fill="#152C3D"/>
</svg>
